<?xml version="1.0" encoding="UTF-8"?>
<svg enable-background="new 0 0 1033.3 163.2" version="1.1" viewBox="0 0 1033.3 163.2" xml:space="preserve" xmlns="http://www.w3.org/2000/svg"><style>.st0{fill:#13254a}</style><path class="st0" d="M126.1 31.8h-18.6l-25.7 83.6-25.6-83.6H24v110.4h21.2V60.1l25.3 82.1h22.8l25.9-84.4 1-3.5v87.9h21.2V31.8h-15.3z"/><linearGradient id="a" x1="166.84" x2="226.35" y1="581.96" y2="581.96" gradientTransform="translate(0 -534.61)" gradientUnits="userSpaceOnUse"><stop stop-color="#97509f" offset="0"/><stop stop-color="#97509f" offset=".491"/><stop stop-color="#371d6d" offset=".738"/><stop stop-color="#232159" offset=".81"/><stop stop-color="#17244e" offset=".926"/><stop stop-color="#13254a" offset="1"/></linearGradient><path d="M216 22.3c-5.2 0-9.5 3.8-10.2 8.7-19.3 4.6-29.5 15.5-34.4 24.9-4.6 8.8-4.6 16.3-4.6 16.3.6-5.6 3.1-10.2 6.1-14.4 9.7-13.4 27.9-19.9 33.4-21.6 1.5 3.9 5.3 6.6 9.6 6.6 5.7 0 10.3-4.6 10.3-10.3s-4.5-10.2-10.2-10.2zm0 15.4c-2.8 0-5.1-2.3-5.1-5.1s2.3-5.1 5.1-5.1 5.1 2.3 5.1 5.1c0 2.9-2.2 5.1-5.1 5.1z" fill="url(#a)"/><linearGradient id="c" x1="166.77" x2="236.84" y1="57.25" y2="57.25" gradientUnits="userSpaceOnUse"><stop stop-color="#97509f" offset="0"/><stop stop-color="#97509f" offset=".462"/><stop stop-color="#341e6b" offset=".759"/><stop stop-color="#212258" offset=".813"/><stop stop-color="#16244d" offset=".942"/><stop stop-color="#13254a" offset="1"/></linearGradient><path d="M230.1 42.5c-4.8-1.7-10.1.3-12.6 4.7-19.7-2.3-33 4.5-40.8 11.7-7.3 6.7-9.9 13.8-9.9 13.8 2.5-5.1 6.4-8.6 10.6-11.4 13.7-9.4 33-9.2 38.8-8.9.1 4.1 2.7 8 6.8 9.5 5.4 1.9 11.3-.9 13.2-6.2s-.7-11.3-6.1-13.2zM224.9 57c-2.6-1-4-3.9-3-6.4 1-2.6 3.9-4 6.4-3 2.6 1 4 3.9 3 6.4s-3.8 3.9-6.4 3z" fill="url(#c)"/><linearGradient id="h" x1="235.63" x2="264.18" y1="556.23" y2="621.91" gradientTransform="translate(0 -534.61)" gradientUnits="userSpaceOnUse"><stop stop-color="#14244b" offset=".008"/><stop stop-color="#13254a" offset="1"/></linearGradient><path d="M276.8 83.8c0-5.2-3.9-9.4-8.8-10.1-4.8-19.2-15.8-29.3-25.3-34.2-8.8-4.5-16.3-4.4-16.3-4.4 5.6.5 10.3 3 14.5 6 13.5 9.6 20.2 27.7 21.9 33.2-3.9 1.5-6.6 5.3-6.4 9.7.1 5.7 4.7 10.2 10.4 10.2 5.5.1 10-4.7 10-10.4zm-15.4.3c0-2.8 2.3-5.1 5.1-5.2 2.8 0 5.1 2.3 5.2 5.1.1 2.8-2.3 5.1-5.1 5.2-2.9 0-5.1-2.4-5.2-5.1z" fill="url(#h)"/><linearGradient id="g" x1="222.01" x2="250.58" y1="564.48" y2="630.16" gradientTransform="translate(0 -534.61)" gradientUnits="userSpaceOnUse"><stop stop-color="#15244c" offset=".117"/><stop stop-color="#13254a" offset="1"/></linearGradient><path d="M256.8 98.1c1.7-4.8-.4-10.1-4.8-12.5 2-19.8-4.9-33-12.1-40.7-6.8-7.2-13.9-9.8-13.9-9.8 5.1 2.4 8.6 6.3 11.6 10.5 9.5 13.5 9.6 32.9 9.4 38.7-4.1.1-8 2.8-9.4 6.9-1.8 5.4 1 11.3 6.3 13.1 5.2 2.1 11-.8 12.9-6.2zm-14.5-5c1-2.7 3.8-4.1 6.4-3.1s4.1 3.9 3.1 6.4c-1 2.7-3.8 4.1-6.4 3.1s-4-3.7-3.1-6.4z" fill="url(#g)"/><linearGradient id="d" x1="206.35" x2="258.77" y1="655.22" y2="655.22" gradientTransform="translate(0 -534.61)" gradientUnits="userSpaceOnUse"><stop stop-color="#97509f" offset="0"/><stop stop-color="#371d6d" offset=".56"/><stop stop-color="#232159" offset=".71"/><stop stop-color="#17244e" offset=".86"/><stop stop-color="#13254a" offset="1"/></linearGradient><path d="M216 145.9c5.2-.1 9.4-3.9 10.1-8.8 19.2-4.8 29.2-15.9 34.1-25.4 4.5-8.8 4.4-16.3 4.4-16.3-.5 5.6-3 10.3-5.9 14.5-9.5 13.5-27.7 20.3-33.2 21.9-1.5-3.9-5.3-6.6-9.7-6.4-5.7.1-10.2 4.7-10.2 10.4 0 5.5 4.7 10.1 10.4 10.1zm-.2-15.4c2.8 0 5.2 2.3 5.2 5.1s-2.3 5.2-5.1 5.2-5.2-2.3-5.2-5.1 2.3-5.2 5.1-5.2z" fill="url(#d)"/><linearGradient id="e" x1="205.08" x2="257.5" y1="645.18" y2="645.18" gradientTransform="translate(0 -534.61)" gradientUnits="userSpaceOnUse"><stop stop-color="#97509f" offset="0"/><stop stop-color="#341e6b" offset=".55"/><stop stop-color="#212258" offset=".69"/><stop stop-color="#16244d" offset=".84"/><stop stop-color="#13254a" offset="1"/></linearGradient><path d="M201.6 125.9c4.8 1.7 10.1-.5 12.5-4.9 19.8 2 32.9-4.9 40.7-12.3 7.2-6.8 9.7-14 9.7-14-2.4 5.1-6.3 8.7-10.5 11.6-13.5 9.5-32.9 9.7-38.7 9.5-.1-4.1-2.8-8-6.9-9.4-5.4-1.8-11.3 1-13.1 6.3-1.9 5.4 1 11.3 6.3 13.2zm5-14.5c2.7 1 4.1 3.8 3.1 6.4-1 2.7-3.8 4.1-6.4 3.1-2.7-1-4.1-3.8-3.1-6.4s3.9-4.1 6.4-3.1z" fill="url(#e)"/><linearGradient id="f" x1="166.28" x2="229.11" y1="621.36" y2="716.22" gradientTransform="translate(0 -534.61)" gradientUnits="userSpaceOnUse"><stop stop-color="#97509f" offset=".39"/><stop stop-color="#13254a" offset="1"/></linearGradient><path d="M154.1 83.8c.1 5.2 3.9 9.4 8.8 10.1 4.8 19.2 15.8 29.2 25.4 34.1 8.8 4.5 16.3 4.4 16.3 4.4-5.6-.5-10.3-3-14.5-6-13.5-9.5-20.2-27.7-21.9-33.2 3.9-1.5 6.6-5.3 6.4-9.7-.1-5.7-4.7-10.2-10.4-10.2-5.6.1-10.2 4.8-10.1 10.5zm15.4-.2c0 2.8-2.3 5.2-5.1 5.2s-5.2-2.3-5.2-5.1 2.3-5.2 5.1-5.2 5.2 2.3 5.2 5.1z" fill="url(#f)"/><linearGradient id="b" x1="179.99" x2="242.81" y1="612.28" y2="707.15" gradientTransform="translate(0 -534.61)" gradientUnits="userSpaceOnUse"><stop stop-color="#97509f" offset=".39"/><stop stop-color="#13254a" offset="1"/></linearGradient><path d="M174.1 69.5c-1.7 4.8.5 10.1 4.9 12.5-2 19.8 4.9 32.9 12.3 40.7 6.8 7.2 13.9 9.7 13.9 9.7-5.1-2.4-8.7-6.3-11.6-10.5-9.5-13.5-9.7-32.9-9.4-38.7 4.1-.1 8-2.8 9.4-6.9 1.8-5.4-1-11.3-6.3-13.1-5.5-1.9-11.4.9-13.2 6.3zm14.5 5.1c-1 2.7-3.8 4.1-6.4 3.1-2.7-1-4.1-3.8-3.1-6.4 1-2.7 3.8-4.1 6.4-3.1 2.7.9 4.1 3.7 3.1 6.4z" fill="url(#b)"/><path class="st0" d="M362.5 31.8h-82.4v19.7h29.3v90.7h23.3V51.5h29.8zM445.5 31.8v42h-42.6v-42h-23.5v110.4h23.5V94.7h42.6v47.5H469V31.8zM833.5 31.8v43.5h-42.7V31.8h-23.3v110.4h23.3V98.7h42.7v43.5h23.3V31.8zM883.9 31.8h23.3v110.4h-23.3zM559.2 51.5V31.8h-63.1v110.4h63.1v-19.7h-39.7v-28h37V74.8h-37V51.5zM637.4 94.4c7.4-4.1 12.1-8.9 15-13.8 5.7-9.2 4.7-17.7 4.7-17.7 0-4.4-.9-8.2-2.1-11.4-7.8-19.1-34.6-19.7-34.6-19.7H582v110.4h23.3v-41.8h11.5l28.2 41.8h24.7l-32.3-47.8zm-19.1-42.9c.8.1 1.6.2 2.5.3 6 1 13.3 4 13.3 13.1 0 0 1.8 13.5-12.8 15.5-1.1.1-2.3.2-3.5.2h-12.5V51.5h13zM738.8 55.8l7.8-17.4s-15.5-8.6-35.8-7.8c0 0-29.6-.3-33.4 28.4 0 0-.9 23.2 18.6 30.9 0 0 27.5 10.6 28.7 20.7 0 0 2 15.2-16.1 13.9-18.2-1.2-32.6-9.7-32.6-9.7v22.1s25.6 10.6 49.2 3.4c23.6-7.1 29-37 11.9-51.6S703.5 74.6 700 63.2c-3.4-11.4 11.9-13.4 13.1-13.5 1.3-.2 14.6-.2 25.7 6.1zM1007.8 51.7c-7.4-16.4-26.9-19.9-26.9-19.9h-46.4v110.4h23.3v-39.5h26.6s15.4-4.5 22.6-19.9c2.1-4.5 3.5-10.1 3.7-16.8 0-5.6-1.1-10.3-2.9-14.3zm-49.9 31.2V51.7h14.2c6.1.8 13.2 3.4 14.7 11.3.3 1.8.6 9.1-1 12-1.9 3.5-7 7.6-20.3 7.8h-7.6v.1z"/></svg>
