<svg width="28" height="30" viewBox="0 0 28 30" fill="none" xmlns="http://www.w3.org/2000/svg">
<g filter="url(#filter0_d_2207_611)">
<path fill-rule="evenodd" clip-rule="evenodd" d="M17.3102 20.0298C17.2102 20.7098 16.5902 21.2498 15.8502 21.2498H12.1502C11.4102 21.2498 10.7902 20.7098 10.7002 19.9798L10.4302 18.0898C10.1602 17.9498 9.90023 17.7998 9.64023 17.6298L7.84023 18.3498C7.14023 18.6098 6.37023 18.3198 6.03023 17.6998L4.20023 14.5298C3.85023 13.8698 4.00023 13.0898 4.56023 12.6498L6.09023 11.4598C6.08023 11.3098 6.07023 11.1598 6.07023 10.9998C6.07023 10.8498 6.08023 10.6898 6.09023 10.5398L4.57023 9.34977C3.98023 8.89977 3.83023 8.08977 4.20023 7.46977L6.05023 4.27977C6.39023 3.65977 7.16023 3.37977 7.84023 3.64977L9.65023 4.37977C9.91023 4.20977 10.1702 4.05977 10.4302 3.91977L10.7002 2.00977C10.7902 1.30977 11.4102 0.759766 12.1402 0.759766H15.8402C16.5802 0.759766 17.2002 1.29977 17.2902 2.02977L17.5602 3.91977C17.8302 4.05977 18.0902 4.20977 18.3502 4.37977L20.1502 3.65977C20.8602 3.39977 21.6302 3.68977 21.9702 4.30977L23.8102 7.48977C24.1702 8.14977 24.0102 8.92977 23.4502 9.36977L21.9302 10.5598C21.9402 10.7098 21.9502 10.8598 21.9502 11.0198C21.9502 11.1798 21.9402 11.3298 21.9302 11.4798L23.4502 12.6698C24.0102 13.1198 24.1702 13.8998 23.8202 14.5298L21.9602 17.7498C21.6202 18.3698 20.8502 18.6498 20.1602 18.3798L18.3602 17.6598C18.1002 17.8298 17.8402 17.9798 17.5802 18.1198L17.3102 20.0298ZM12.6202 19.2498H15.3802L15.7502 16.6998L16.2802 16.4798C16.7202 16.2998 17.1602 16.0398 17.6202 15.6998L18.0702 15.3598L20.4502 16.3198L21.8302 13.9198L19.8002 12.3398L19.8702 11.7798L19.8733 11.7528C19.9023 11.5025 19.9302 11.2604 19.9302 10.9998C19.9302 10.7298 19.9002 10.4698 19.8702 10.2198L19.8002 9.65977L21.8302 8.07977L20.4402 5.67977L18.0502 6.63977L17.6002 6.28977C17.1802 5.96977 16.7302 5.70977 16.2702 5.51977L15.7502 5.29977L15.3802 2.74977H12.6202L12.2502 5.29977L11.7202 5.50977C11.2802 5.69977 10.8402 5.94977 10.3802 6.29977L9.93023 6.62977L7.55023 5.67977L6.16023 8.06977L8.19023 9.64977L8.12023 10.2098C8.09023 10.4698 8.06023 10.7398 8.06023 10.9998C8.06023 11.2598 8.08023 11.5298 8.12023 11.7798L8.19023 12.3398L6.16023 13.9198L7.54023 16.3198L9.93023 15.3598L10.3802 15.7098C10.8102 16.0398 11.2402 16.2898 11.7102 16.4798L12.2402 16.6998L12.6202 19.2498ZM17.5002 10.9998C17.5002 12.9328 15.9332 14.4998 14.0002 14.4998C12.0672 14.4998 10.5002 12.9328 10.5002 10.9998C10.5002 9.06677 12.0672 7.49977 14.0002 7.49977C15.9332 7.49977 17.5002 9.06677 17.5002 10.9998Z" fill="#475467"/>
</g>
<defs>
<filter id="filter0_d_2207_611" x="-0.000976562" y="0.759766" width="28.0059" height="28.4902" filterUnits="userSpaceOnUse" color-interpolation-filters="sRGB">
<feFlood flood-opacity="0" result="BackgroundImageFix"/>
<feColorMatrix in="SourceAlpha" type="matrix" values="0 0 0 0 0 0 0 0 0 0 0 0 0 0 0 0 0 0 127 0" result="hardAlpha"/>
<feOffset dy="4"/>
<feGaussianBlur stdDeviation="2"/>
<feComposite in2="hardAlpha" operator="out"/>
<feColorMatrix type="matrix" values="0 0 0 0 0 0 0 0 0 0 0 0 0 0 0 0 0 0 0.25 0"/>
<feBlend mode="normal" in2="BackgroundImageFix" result="effect1_dropShadow_2207_611"/>
<feBlend mode="normal" in="SourceGraphic" in2="effect1_dropShadow_2207_611" result="shape"/>
</filter>
</defs>
</svg>
